<svg width="234" height="40" viewBox="0 0 234 40" fill="none" xmlns="http://www.w3.org/2000/svg">
<path d="M17.5829 3.57196C17.6049 5.83792 16.2538 4.44833 16.2722 5.72106C16.2806 6.30274 16.9977 6.82156 17.3858 7.57289C17.8469 8.46549 17.9807 9.61039 17.8324 10.5157C17.7359 11.1044 17.5404 11.6972 17.2784 12.2388C16.5667 13.7102 15.4326 14.5165 13.6232 14.373C11.9037 14.2365 10.1716 14.2509 8.44691 14.1658C7.82521 14.135 5.99827 13.5222 5.94357 13.8997C5.8625 14.459 6.18065 14.8524 6.67025 15.0034C7.52942 15.2685 8.41445 15.5281 9.30666 15.6092C11.0241 15.7653 12.7615 15.7292 14.4759 15.9044C15.3832 15.9972 16.3156 16.256 17.1373 16.6359C18.4924 17.2626 18.8461 18.3598 18.71 20.0627C18.5788 21.7027 17.7761 22.8269 16.2988 23.5832C15.9687 23.7521 15.6547 23.9538 15.3497 24.1623C14.8326 24.5159 14.87 24.9286 15.435 25.1864C15.7639 25.3364 16.1029 25.4662 16.4332 25.6137C17.9637 26.2967 18.9694 28.245 18.5855 29.7768C18.3935 30.5427 17.4129 30.8766 16.7729 30.4003C15.7944 29.6719 14.7364 29.1046 13.4731 28.9812C12.4406 28.8803 11.5622 29.1875 10.8934 29.9512C10.7617 30.1016 10.6453 30.3983 10.7153 30.5408C10.7971 30.7071 11.0808 30.8471 11.295 30.8761C11.7061 30.9317 12.1304 30.9144 12.5486 30.9037C15.2025 30.8363 16.9089 31.9976 17.8099 34.3944C18.8706 37.216 16.5857 39.4326 14.2316 39.8948C12.6027 40.2146 11.2117 39.6567 9.93594 38.755C8.73785 37.9082 7.75632 36.86 6.84011 35.6602C7.71732 35.6986 8.52979 35.6927 9.33131 35.7793C10.415 35.8964 11.4914 36.0777 12.5682 36.2479C12.7749 36.2806 12.9768 36.3737 13.1667 36.4658C13.6983 36.7238 13.704 37.0316 13.24 37.3991C12.9726 37.4915 12.6227 37.7187 12.8455 37.9516C13.0822 38.1774 13.2607 38.1979 13.4867 38.259C13.675 38.3099 13.8945 38.2915 14.0937 38.2628C14.6735 38.1792 15.2267 38.0125 15.4689 37.4388C15.7135 36.8592 15.4115 36.3818 15.0522 35.9422C14.0948 34.7706 12.7305 34.4696 11.2845 34.3631C9.24301 34.2128 7.19912 34.0897 5.15964 33.9182C4.69884 33.8795 4.23505 33.7294 3.802 33.5615C2.6973 33.1331 2.29291 32.1702 2.7131 31.1115C3.39957 31.2976 4.07275 31.5437 4.76956 31.6559C6.29222 31.901 7.6979 31.5984 8.8896 30.6152C9.48301 30.1256 9.80654 29.5124 9.67547 28.7348C9.60388 28.3101 9.34287 28.179 8.97838 28.4276C8.61275 28.6769 8.2652 28.955 7.93545 29.2469C7.02162 30.0561 5.95859 30.2786 4.77126 29.9989C3.50648 29.7009 2.36881 29.1915 1.70937 28.0418C0.988895 26.7857 1.44805 25.0654 2.78672 23.9102C3.06196 23.6727 3.37304 23.4731 3.59405 23.3103C4.1192 23.6912 4.57165 24.0445 5.05206 24.3587C5.35165 24.5547 5.67403 24.5485 5.87846 24.2049C6.08484 23.858 6.03459 23.5475 5.70239 23.2744C5.39576 23.0222 5.06284 22.7777 4.8307 22.4686C4.20934 21.6415 4.35567 20.5376 5.1385 19.8472C5.22358 19.7721 5.35832 19.7083 5.47051 19.7076C6.78949 19.6992 8.10918 19.682 9.42728 19.7164C9.92354 19.7293 10.4378 19.8095 10.9062 19.9635C12.0532 20.3406 12.6965 21.3571 12.5209 22.4013C12.3598 23.3587 11.4197 24.0763 10.2368 24.139C10.0227 24.1503 9.80317 24.1171 9.5943 24.1507C9.08756 24.1667 9.1848 24.68 9.27425 24.7838C10.099 25.7404 11.3974 25.9796 12.5246 25.4034C15.1848 24.0436 15.389 20.5828 12.9053 18.9763C11.9845 18.3807 10.9584 18.0508 9.86133 17.9978C8.52331 17.9333 7.17884 17.9876 5.84131 17.9179C4.54657 17.8505 3.38833 17.4072 2.5164 16.4457C1.84053 15.7004 1.69692 14.8433 2.05544 13.9163C2.74435 12.1352 4.53693 11.2134 6.67009 11.6051C8.11064 11.8697 9.52393 12.2799 10.97 12.503C11.8773 12.643 12.835 12.6548 13.7482 12.5501C15.2199 12.3813 16.0965 11.4919 16.4132 10.1149C16.7325 8.72672 16.3621 7.55264 15.161 6.67042C14.1708 5.94311 13.0114 5.62325 11.7952 5.46467C10.4714 5.29205 9.16202 5.34894 7.87961 5.73327C7.15022 5.99693 7.07343 6.45475 7.11624 6.68262C7.1447 6.83412 7.52245 7.02135 7.74843 7.02705C8.81925 7.05403 9.89451 6.97326 10.9627 7.02831C12.0974 7.0868 13.2396 7.20719 14.1322 8.02244C14.782 8.61592 15.0462 9.36875 14.7936 9.97796C14.5182 10.6421 13.8017 11.069 12.8842 11.0199C12.224 10.9845 11.564 10.8739 10.914 10.7487C9.52754 10.4815 8.15274 10.1568 6.76263 9.90965C6.16908 9.8041 5.54926 9.83338 4.92362 9.80046C4.29445 8.23462 3.92335 7.29275 5.55833 5.83739C7.07036 4.49146 8.86128 3.55195 11.0103 3.60285C11.7492 3.62035 12.4784 3.92977 13.2166 4.08571C13.8372 4.21679 14.4632 4.32611 15.09 4.42663C15.2042 4.44495 15.7319 4.55211 15.5896 4.31312C15.3643 3.98385 15.2198 3.65882 14.9746 3.43404C13.8615 2.41365 12.4861 1.98641 10.9715 1.91281C10.7679 1.90292 10.5636 1.90885 10.3596 1.90581C10.3404 1.90553 10.3213 1.89344 10.2462 1.86752C10.7961 1.03753 11.4766 0.370014 12.482 0.135676C13.8183 -0.175745 15.0934 0.071653 16.2359 0.787039C17.3878 1.50837 17.5687 2.10359 17.5829 3.57196ZM2.42959 18.3993C2.1208 18.2273 1.92736 18.2484 1.673 18.4509C0.339011 19.5129 -0.0528212 20.9288 0.00554844 22.5051C0.0261963 23.0627 0.202616 23.5768 0.706366 23.9134C1.13774 23.5624 1.51805 23.196 1.95666 22.9118C2.40343 22.6223 2.90756 22.4136 3.40549 22.1598C3.19808 21.0728 3.52638 20.0818 4.14082 19.1751C3.54816 18.9122 2.96383 18.6968 2.42959 18.3993Z" fill="#F8F8F5"/>
<path d="M22.4992 3.67188C22.5353 2.3206 22.6752 1.71028 23.1963 1.18336C24.9122 -0.551439 27.9404 -0.348353 29.3563 1.59235C29.4153 1.67322 29.4655 1.76016 29.5411 1.87723C27.4444 1.95251 25.525 2.31449 24.3648 4.18266C24.3831 4.25488 24.4013 4.3271 24.4195 4.39932C24.8249 4.39932 25.2384 4.44801 25.6334 4.38568C26.0318 4.32284 26.4244 4.17799 26.7978 4.02008C28.2971 3.38603 29.7906 3.44959 31.2616 4.06925C32.4319 4.56225 33.5462 5.15962 34.4191 6.10096C35.2026 6.9459 35.4747 7.89757 35.0443 8.99665C34.9365 9.27184 34.8587 9.55821 34.7663 9.84198C32.3767 9.67201 30.1991 10.6324 27.9099 10.9302C27.3957 10.9971 26.8567 11.0314 26.3477 10.958C25.2187 10.7953 24.6738 9.66938 25.2186 8.68994C25.7699 7.69854 26.7039 7.23476 27.7971 7.15486C29.1536 7.05572 30.5185 7.06284 31.88 7.03826C32.2063 7.03237 32.5436 7.07077 32.6332 6.66688C32.7207 6.27274 32.5563 5.96777 32.1592 5.84257C29.6788 5.06038 27.2625 5.17371 25 6.49598C23.6152 7.30525 23.1332 8.65068 23.523 10.1957C23.8959 11.6743 24.8831 12.4709 26.5363 12.6264C28.2897 12.7914 29.9521 12.3315 31.617 11.9077C32.7104 11.6294 33.8006 11.3892 34.9375 11.6309C36.6639 11.998 37.9879 13.7489 37.6889 15.2925C37.516 16.1852 36.9177 16.78 36.1554 17.2263C35.2306 17.7678 34.2181 17.9626 33.1399 17.9437C31.5994 17.9167 30.0489 17.8111 28.5381 18.2426C27.5908 18.5132 26.7527 18.9764 26.0808 19.6813C24.6658 21.1659 25.0244 23.7084 26.8245 25.0921C27.9983 25.9943 29.3519 25.9252 30.3937 24.8823C30.5212 24.7547 30.5767 24.5055 30.5609 24.3212C30.5548 24.2502 30.2608 24.1744 30.0908 24.151C29.7389 24.1027 29.3731 24.1275 29.0293 24.052C28.0163 23.8296 27.3977 23.1505 27.2855 22.1939C27.1907 21.3864 27.7532 20.4921 28.6237 20.0674C29.4673 19.6557 30.3745 19.7035 31.2782 19.7104C32.2121 19.7175 33.1462 19.699 34.0798 19.716C34.2564 19.7192 34.4757 19.7907 34.5992 19.9074C35.4491 20.7105 35.4156 22.0034 34.5351 22.8467C34.3638 23.0108 34.1589 23.1413 33.9719 23.2902C33.6496 23.547 33.6239 23.8699 33.8121 24.1989C34.005 24.5363 34.3207 24.5607 34.6204 24.3593C35.0904 24.0436 35.5357 23.6929 36.0287 23.3296C37.2002 23.819 38.2503 25.4381 38.219 26.8015C38.1882 28.1388 37.2699 29.1996 35.6264 29.7954C34.1189 30.3419 32.7451 30.2253 31.567 29.0446C31.3273 28.8044 31.0431 28.6003 30.7565 28.4128C30.4366 28.2034 30.1998 28.2826 30.1147 28.6735C29.9209 29.5631 30.3341 30.2228 31.0103 30.7296C32.6786 31.98 34.4982 31.9651 36.3795 31.2619C36.5448 31.2001 36.7054 31.1264 36.8664 31.059C37.3399 31.9058 37.0148 33.093 36.0683 33.4326C35.1077 33.7772 34.0722 33.986 33.0517 34.0939C31.2273 34.2867 29.3864 34.3271 27.5586 34.4946C26.5507 34.587 25.6583 35.0108 24.9803 35.7783C24.5378 36.2791 24.1372 36.8167 24.4668 37.5241C24.7167 38.0605 25.578 38.3897 26.3712 38.2571C26.5931 38.22 26.7928 38.056 27.0026 37.9503C26.8733 37.7636 26.7789 37.5354 26.6079 37.3983C26.1449 37.0272 26.1374 36.6399 26.7104 36.4648C27.5851 36.1975 28.4903 35.9856 29.3985 35.8722C30.5265 35.7314 31.6707 35.7149 32.9664 35.6349C32.3047 36.37 31.7636 37.0322 31.1571 37.6314C30.052 38.7234 28.8247 39.6334 27.2201 39.9307C24.4097 40.4514 21.5518 37.9523 21.9083 35.2734C22.259 32.6379 24.4321 30.8234 27.1424 30.8964C27.5936 30.9085 28.0504 30.9308 28.4953 30.8765C28.7117 30.8501 28.9889 30.7003 29.0843 30.526C29.1552 30.3966 29.0323 30.0915 28.9017 29.9437C28.0342 28.9613 26.8943 28.7146 25.7007 29.1222C24.7958 29.4312 23.9501 29.9382 23.1287 30.4366C22.5285 30.8006 21.5976 30.5412 21.4 29.8592C20.9827 28.4192 21.8809 26.4425 23.2964 25.7139C23.667 25.5232 24.0606 25.3752 24.4402 25.2005C25.0024 24.9417 25.0474 24.5037 24.5337 24.1536C24.1294 23.878 23.7198 23.6021 23.2838 23.3801C21.0728 22.2543 21.004 19.59 21.4612 18.0128C21.6968 17.2002 22.3956 16.7678 23.1354 16.4404C24.5796 15.8015 26.1357 15.8343 27.6757 15.7395C29.2005 15.6456 30.7236 15.4964 32.2394 15.3095C32.6326 15.261 33.0241 15.0206 33.3616 14.7915C33.552 14.6623 33.709 14.3855 33.7365 14.1585C33.7605 13.96 33.6369 13.6505 33.4759 13.555C33.3511 13.481 33.0687 13.6649 32.8547 13.7287C32.3532 13.8782 31.8573 14.1206 31.3473 14.1544C29.7452 14.2604 28.137 14.274 26.5324 14.3483C24.0627 14.4626 22.6534 13.3804 22.1846 10.8608C22.0352 10.0581 22.0555 9.21073 22.1096 8.39079C22.1574 7.66672 22.5562 7.07866 23.2193 6.69237C23.4172 6.57709 23.6236 6.46045 23.784 6.30346C23.928 6.16247 24.2615 5.68839 23.6296 5.40723C23.6296 5.40723 22.4632 5.02315 22.4992 3.67188ZM39.2981 23.8529C40.6847 22.8376 39.7871 19.0665 37.9323 18.2532C37.2321 18.565 36.5637 18.8627 35.8612 19.1756C36.5025 20.0835 36.7736 21.0983 36.6093 22.0534C37.5531 22.685 38.4153 23.2621 39.2981 23.8529Z" fill="#F8F8F5"/>
<path d="M53.198 31.0617C51.6583 31.0617 50.5035 30.558 49.7337 29.5506C48.9639 28.5432 48.5789 27.4321 48.5789 26.2173C48.5789 25.4469 48.6974 24.7062 48.9342 23.9951C49.1711 23.2543 49.482 22.558 49.8669 21.9062C50.2222 21.2543 50.696 20.5284 51.2882 19.7284C51.8804 18.9284 52.5614 18.158 53.3312 17.4173C54.1011 16.6765 54.9301 16.0691 55.8184 15.5951C56.7067 15.121 57.6394 14.884 58.6165 14.884C59.4455 14.884 60.0525 15.1358 60.4374 15.6395C60.852 16.1432 61.0592 16.721 61.0592 17.3728C61.0592 17.5802 61 17.9062 60.8816 18.3506C60.7631 18.7951 60.6003 19.2543 60.393 19.7284C60.2154 20.2025 59.9933 20.6173 59.7268 20.9728C59.4603 21.2988 59.1642 21.4617 58.8385 21.4617C58.6609 21.4617 58.498 21.4025 58.35 21.284C58.2019 21.1358 58.1279 20.9877 58.1279 20.8395C58.1279 20.7506 58.2464 20.5432 58.4832 20.2173C58.7201 19.8914 58.957 19.4914 59.1939 19.0173C59.4307 18.5432 59.5492 18.0395 59.5492 17.5062C59.5492 17.1802 59.4603 16.8839 59.2827 16.6173C59.1346 16.3506 58.8385 16.2173 58.3944 16.2173C57.6542 16.2173 56.8991 16.4543 56.1293 16.9284C55.3891 17.3728 54.6932 17.9506 54.0418 18.6617C53.3904 19.3432 52.8131 20.0395 52.3097 20.7506C51.8063 21.4321 51.4214 22.0247 51.1549 22.5284C50.8588 23.0617 50.622 23.6247 50.4443 24.2173C50.2963 24.7802 50.2222 25.358 50.2222 25.9506C50.2222 26.5432 50.3111 27.1358 50.4887 27.7284C50.6664 28.321 50.9773 28.8099 51.4214 29.1951C51.8656 29.5802 52.4874 29.7728 53.2868 29.7728C54.1751 29.7728 55.0337 29.5506 55.8628 29.1062C56.6919 28.6617 57.3877 28.158 57.9503 27.5951C58.5424 27.0321 59.0162 26.5284 59.3715 26.084C59.7564 25.6395 60.1413 25.1358 60.5263 24.5728C60.9408 23.9802 61.459 23.2099 62.0808 22.2617C62.1992 22.0543 62.3768 21.9506 62.6137 21.9506C63.0283 21.9506 63.2355 22.1728 63.2355 22.6173C63.2355 22.7654 63.2059 22.884 63.1467 22.9728C62.3472 24.2469 61.459 25.5062 60.4819 26.7506C59.5344 27.9951 58.4536 29.0321 57.2396 29.8617C56.0553 30.6617 54.708 31.0617 53.198 31.0617Z" fill="#F8F8F5"/>
<path d="M67.0239 31.2395C66.4613 31.2395 65.9728 31.0617 65.5582 30.7062C65.1733 30.3506 64.9808 29.7877 64.9808 29.0173C64.9808 28.3951 65.0993 27.758 65.3362 27.1062C65.573 26.4247 65.7951 25.8914 66.0024 25.5062C66.4761 24.558 66.9795 23.684 67.5124 22.884C68.0454 22.0543 68.4451 21.4617 68.7116 21.1062C68.1786 21.1358 67.542 21.0025 66.8018 20.7062C66.0912 20.4099 65.5878 20.0247 65.2917 19.5506C64.9068 20.1136 64.359 21.0321 63.6484 22.3062C62.9378 23.5506 62.0347 24.8691 60.9392 26.2617C60.7615 26.4988 60.5543 26.6173 60.3174 26.6173C59.8732 26.6173 59.6512 26.4247 59.6512 26.0395C59.6512 25.8914 59.6956 25.758 59.7844 25.6395C60.2286 25.0173 60.7763 24.2173 61.4277 23.2395C62.1087 22.2321 62.7601 21.1951 63.3819 20.1284C64.0333 19.0321 64.5515 18.0543 64.9364 17.1951C65.0549 16.9284 65.1733 16.6469 65.2917 16.3506C65.4398 16.0543 65.573 15.7728 65.6915 15.5062C65.8099 15.2988 65.9728 15.121 66.18 14.9728C66.3873 14.7951 66.6242 14.7062 66.8906 14.7062C67.1275 14.7062 67.3644 14.8099 67.6013 15.0173C67.8381 15.1951 67.9566 15.4025 67.9566 15.6395C67.9566 15.9062 67.8529 16.2469 67.6457 16.6617C67.468 17.0469 67.2756 17.4469 67.0683 17.8617C66.861 18.2765 66.7574 18.6469 66.7574 18.9728C66.7574 19.2395 66.9795 19.4173 67.4236 19.5062C67.8677 19.5951 68.1934 19.6395 68.4007 19.6395C69.2002 19.6395 69.8664 19.4765 70.3993 19.1506C70.9323 18.8247 71.3024 18.6617 71.5097 18.6617C71.6873 18.6617 71.8354 18.7358 71.9538 18.884C72.1019 19.0025 72.1759 19.1358 72.1759 19.284C72.1759 19.4914 72.0871 19.6691 71.9094 19.8173C71.4949 20.2025 71.0063 20.7506 70.4438 21.4617C69.8812 22.1728 69.3186 22.9432 68.756 23.7728C68.1934 24.6025 67.7049 25.4173 67.2904 26.2173C67.1719 26.5136 66.9943 26.9284 66.7574 27.4617C66.5501 27.9951 66.4465 28.4988 66.4465 28.9728C66.4465 29.7728 66.7278 30.1728 67.2904 30.1728C67.5272 30.1728 67.7937 30.084 68.0898 29.9062C68.4155 29.7284 68.7264 29.521 69.0225 29.284C69.7331 28.6321 70.3549 27.9951 70.8879 27.3728C71.4505 26.721 72.013 25.9951 72.5756 25.1951C73.1382 24.3951 73.7896 23.4321 74.5298 22.3062C74.6483 22.0988 74.8555 21.9951 75.1516 21.9951C75.5365 21.9951 75.729 22.1728 75.729 22.5284C75.729 22.7062 75.6402 22.958 75.4625 23.2839C75.048 24.0247 74.5002 24.8395 73.8192 25.7284C73.1678 26.6173 72.4868 27.4617 71.7762 28.2617C71.0952 29.0321 70.4882 29.6247 69.9552 30.0395C69.0077 30.8395 68.0306 31.2395 67.0239 31.2395Z" fill="#F8F8F5"/>
<path d="M77.6055 31.0617C76.0658 31.0617 74.9851 30.6173 74.3633 29.7284C73.7711 28.8099 73.475 27.7432 73.475 26.5284C73.475 25.6395 73.6971 24.5877 74.1412 23.3728C74.5853 22.1284 75.1923 20.9136 75.9622 19.7284C76.7616 18.5432 77.6795 17.5654 78.7158 16.7951C79.7522 15.9951 80.8625 15.5951 82.0469 15.5951C82.8167 15.5951 83.4237 15.8173 83.8679 16.2617C84.3416 16.6765 84.5785 17.2099 84.5785 17.8617C84.5785 19.1062 84.1787 20.3062 83.3793 21.4617C82.5798 22.6173 81.5435 23.5654 80.2703 24.3062C78.9971 25.0469 77.6351 25.4173 76.1843 25.4173C76.0066 25.4173 75.8289 25.4173 75.6513 25.4173C75.4736 25.3877 75.296 25.358 75.1183 25.3284C75.0295 25.7136 74.9851 26.158 74.9851 26.6617C74.9851 27.4321 75.1627 28.1432 75.518 28.7951C75.903 29.4469 76.6284 29.7728 77.6943 29.7728C78.5826 29.7728 79.4413 29.5506 80.2703 29.1062C81.0994 28.6617 81.7952 28.158 82.3578 27.5951C82.9204 27.0321 83.3941 26.5284 83.779 26.084C84.1639 25.6395 84.5637 25.1358 84.9782 24.5728C85.3927 23.9802 85.9109 23.2099 86.5327 22.2617C86.6511 22.0543 86.8288 21.9506 87.0657 21.9506C87.4802 21.9506 87.6874 22.1728 87.6874 22.6173C87.6874 22.7654 87.6578 22.884 87.5986 22.9728C86.7992 24.3358 85.9109 25.6395 84.9338 26.884C83.9567 28.0988 82.8611 29.1062 81.6472 29.9062C80.4628 30.6765 79.1156 31.0617 77.6055 31.0617ZM76.4951 24.0395C77.6203 24.0395 78.6714 23.7432 79.6485 23.1506C80.6552 22.5284 81.4695 21.758 82.0913 20.8395C82.7427 19.921 83.0684 18.9877 83.0684 18.0395C83.0684 17.7136 82.9796 17.4469 82.8019 17.2395C82.6539 17.0321 82.3874 16.9284 82.0025 16.9284C81.2326 16.9284 80.4924 17.1951 79.7818 17.7284C79.0712 18.2321 78.4197 18.884 77.8276 19.684C77.265 20.4543 76.7764 21.2247 76.3619 21.9951C75.977 22.7654 75.6957 23.4173 75.518 23.9506C75.6661 23.9802 75.8141 24.0099 75.9622 24.0395C76.1398 24.0395 76.3175 24.0395 76.4951 24.0395Z" fill="#F8F8F5"/>
<path d="M87.1791 30.7951C86.202 30.7951 85.521 30.5432 85.1361 30.0395C84.7808 29.5062 84.6031 28.8691 84.6031 28.1284C84.6031 27.4173 84.7215 26.6765 84.9584 25.9062C85.1953 25.1358 85.447 24.4247 85.7135 23.7728C86.0096 23.0914 86.2464 22.5877 86.4241 22.2617C86.957 21.3432 87.5492 20.4543 88.2006 19.5951C88.8816 18.7358 89.6071 17.9802 90.3769 17.3284C91.1468 16.6469 91.9314 16.1284 92.7308 15.7728C93.5599 15.3877 94.389 15.1951 95.218 15.1951C96.6393 15.1951 97.646 15.5802 98.2382 16.3506C98.8304 17.0914 99.1265 17.8914 99.1265 18.7506C99.1265 19.0469 99.082 19.358 98.9932 19.684C98.8748 20.1284 98.7267 20.5136 98.5491 20.8395C98.401 21.1654 98.2086 21.3284 97.9717 21.3284C97.7644 21.3284 97.572 21.2247 97.3943 21.0173C97.2167 20.8099 97.1574 20.6025 97.2167 20.3951C97.2759 20.1877 97.3499 19.9802 97.4387 19.7728C97.5572 19.5654 97.6312 19.358 97.6608 19.1506C97.6904 19.0025 97.7052 18.8691 97.7052 18.7506C97.7348 18.6321 97.7496 18.5136 97.7496 18.3951C97.7496 17.5951 97.4831 17.0469 96.9502 16.7506C96.4468 16.4247 95.899 16.2617 95.3069 16.2617C94.6258 16.2617 93.9152 16.4543 93.175 16.8395C92.4644 17.2247 91.8426 17.6691 91.3096 18.1728C90.6582 18.8247 90.0068 19.5802 89.3554 20.4395C88.704 21.2988 88.1414 22.1728 87.6677 23.0617C87.6084 23.2099 87.4456 23.5654 87.1791 24.1284C86.9422 24.6914 86.7054 25.3284 86.4685 26.0395C86.2612 26.721 86.1576 27.358 86.1576 27.9506C86.1576 28.3654 86.2464 28.721 86.4241 29.0173C86.6313 29.3136 86.9719 29.4617 87.4456 29.4617C87.949 29.4617 88.5263 29.2247 89.1777 28.7506C89.8588 28.2765 90.5398 27.6988 91.2208 27.0173C91.9314 26.3062 92.568 25.6247 93.1306 24.9728C93.6932 24.321 94.1077 23.8173 94.3742 23.4617C94.5518 23.2247 94.7147 22.9728 94.8627 22.7062C95.0404 22.4099 95.218 22.1432 95.3957 21.9062C95.4845 21.7877 95.6622 21.7284 95.9287 21.7284C96.1655 21.7284 96.4024 21.8025 96.6393 21.9506C96.9058 22.0691 97.0094 22.2469 96.9502 22.484C96.8317 22.6914 96.6097 23.1506 96.284 23.8617C95.9879 24.5432 95.7066 25.2988 95.4401 26.1284C95.1736 26.9284 95.0404 27.6395 95.0404 28.2617C95.0404 29.0321 95.2773 29.4765 95.751 29.5951C96.0767 29.6543 96.4172 29.5358 96.7725 29.2395C97.1574 28.9432 97.4979 28.6025 97.794 28.2173C98.1197 27.8321 98.3566 27.5506 98.5047 27.3728C99.1265 26.5432 99.7038 25.6988 100.237 24.8395C100.799 23.9506 101.362 23.121 101.925 22.3506C102.102 22.1136 102.309 21.9951 102.546 21.9951C102.961 21.9951 103.168 22.2173 103.168 22.6617C103.168 22.8099 102.976 23.1951 102.591 23.8173C102.206 24.4099 101.732 25.0914 101.169 25.8617C100.637 26.6321 100.133 27.3284 99.6594 27.9506C99.1857 28.5728 98.6527 29.1802 98.0605 29.7728C97.4683 30.3654 96.7133 30.6617 95.7954 30.6617C94.9367 30.6617 94.3446 30.4691 94.0189 30.084C93.7228 29.6988 93.5747 29.2691 93.5747 28.7951C93.5747 28.3802 93.6191 27.9506 93.708 27.5062C93.7968 27.0321 93.8856 26.6321 93.9744 26.3062L93.7968 26.1728C93.5303 26.4988 93.1306 26.9136 92.5976 27.4173C92.0646 27.921 91.4725 28.4395 90.8211 28.9728C90.1697 29.4765 89.5183 29.9062 88.8668 30.2617C88.2451 30.6173 87.6825 30.7951 87.1791 30.7951Z" fill="#F8F8F5"/>
<path d="M103.418 32.2173C102.826 32.2173 102.382 32.0247 102.086 31.6395C101.79 31.284 101.597 30.8543 101.508 30.3506C101.42 29.8469 101.375 29.4025 101.375 29.0173C101.375 27.8025 101.597 26.4395 102.041 24.9284C102.486 23.4173 103.004 21.9062 103.596 20.3951C104.218 18.8839 104.78 17.5358 105.284 16.3506C104.751 16.3802 104.159 16.4691 103.507 16.6173C102.885 16.7654 102.323 16.8395 101.819 16.8395C101.405 16.8395 101.198 16.6617 101.198 16.3062C101.198 15.8025 101.464 15.5062 101.997 15.4173C102.648 15.2691 103.315 15.1506 103.996 15.0617C104.677 14.9728 105.343 14.8988 105.994 14.8395C106.172 14.5136 106.424 14.0099 106.749 13.3284C107.075 12.6469 107.445 11.921 107.86 11.1506C108.274 10.3506 108.674 9.6395 109.059 9.01728C109.473 8.36543 109.814 7.90617 110.08 7.63951C110.258 7.46173 110.45 7.37284 110.658 7.37284C110.865 7.37284 111.043 7.4321 111.191 7.55061C111.339 7.66913 111.413 7.81728 111.413 7.99506C111.413 8.08395 111.368 8.20247 111.28 8.35062C110.539 9.26913 109.918 10.2765 109.414 11.3728C108.911 12.4691 108.407 13.5358 107.904 14.5728C108.437 14.5136 109 14.4543 109.592 14.3951C110.184 14.3358 110.761 14.3062 111.324 14.3062C111.502 14.3062 111.664 14.3358 111.813 14.3951C111.99 14.4543 112.079 14.5877 112.079 14.7951C112.079 14.9728 111.99 15.121 111.813 15.2395C111.664 15.358 111.487 15.4469 111.28 15.5062C110.628 15.6247 109.947 15.7284 109.237 15.8173C108.556 15.8765 107.874 15.9506 107.193 16.0395C106.809 16.9284 106.364 17.921 105.861 19.0173C105.358 20.1136 104.869 21.2543 104.395 22.4395C103.951 23.5951 103.581 24.721 103.285 25.8173C102.989 26.9136 102.841 27.9062 102.841 28.7951C102.841 28.9432 102.841 29.1951 102.841 29.5506C102.871 29.8765 102.945 30.1728 103.063 30.4395C103.181 30.7062 103.359 30.8395 103.596 30.8395C104.099 30.8395 104.455 30.7062 104.662 30.4395C104.869 30.1728 105.106 30.0395 105.373 30.0395C105.58 30.0395 105.757 30.0988 105.905 30.2173C106.083 30.3358 106.172 30.484 106.172 30.6617C106.172 30.9284 105.994 31.1802 105.639 31.4173C105.313 31.6543 104.928 31.8469 104.484 31.9951C104.04 32.1432 103.685 32.2173 103.418 32.2173Z" fill="#F8F8F5"/>
<path d="M117.639 12.484C117.491 12.484 117.329 12.4543 117.151 12.3951C116.973 12.3358 116.884 12.2025 116.884 11.9951C116.884 11.8469 116.929 11.7136 117.018 11.5951C117.254 11.1506 117.684 10.7654 118.306 10.4395C118.957 10.1136 119.446 9.95062 119.771 9.95062C119.919 9.95062 120.082 9.99506 120.26 10.0839C120.437 10.1432 120.526 10.2765 120.526 10.484C120.526 10.9877 120.215 11.4469 119.594 11.8617C119.001 12.2765 118.35 12.484 117.639 12.484ZM112.665 30.6617C111.658 30.6617 110.859 30.3802 110.267 29.8173C109.675 29.2543 109.378 28.4691 109.378 27.4617C109.378 26.8691 109.438 26.2914 109.556 25.7284C109.675 25.1358 109.837 24.558 110.045 23.9951C110.163 23.6691 110.4 23.1358 110.755 22.3951C111.14 21.6247 111.584 20.8247 112.088 19.9951C112.591 19.1358 113.08 18.4099 113.553 17.8173C114.027 17.2247 114.442 16.9284 114.797 16.9284C114.945 16.9284 115.137 16.9877 115.374 17.1062C115.641 17.1951 115.774 17.3432 115.774 17.5506C115.774 17.6691 115.715 17.8173 115.596 17.9951C114.915 18.7654 114.205 19.6839 113.465 20.7506C112.724 21.8173 112.102 22.9284 111.599 24.084C111.096 25.2395 110.844 26.3506 110.844 27.4173C110.844 28.7802 111.495 29.4617 112.798 29.4617C113.687 29.4617 114.575 29.0321 115.463 28.1728C116.381 27.3136 117.388 26.158 118.483 24.7062C118.809 24.2914 119.09 23.8914 119.327 23.5062C119.594 23.0914 119.83 22.7358 120.038 22.4395C120.245 22.2321 120.467 22.1284 120.704 22.1284C121.059 22.1284 121.237 22.2617 121.237 22.5284C121.237 22.8543 121 23.3728 120.526 24.084C120.053 24.7951 119.52 25.5358 118.927 26.3062C117.773 27.7284 116.766 28.8099 115.907 29.5506C115.049 30.2914 113.968 30.6617 112.665 30.6617Z" fill="#F8F8F5"/>
<path d="M121.504 31.1062C120.941 31.1062 120.571 30.8543 120.393 30.3506C120.216 29.8469 120.127 29.4025 120.127 29.0173C120.127 28.3358 120.216 27.4617 120.393 26.3951C120.571 25.3284 120.808 24.2173 121.104 23.0617C120.749 23.6247 120.364 24.1877 119.949 24.7506C119.564 25.3136 119.209 25.8321 118.883 26.3062C118.765 26.5136 118.587 26.6173 118.35 26.6173C118.143 26.6173 117.965 26.5284 117.817 26.3506C117.64 26.1728 117.625 25.9802 117.773 25.7728C118.158 25.2099 118.661 24.4543 119.283 23.5062C119.934 22.558 120.586 21.5654 121.237 20.5284C121.889 19.4914 122.436 18.5877 122.881 17.8173C123.029 17.5506 123.162 17.3136 123.28 17.1062C123.428 16.8691 123.562 16.6617 123.68 16.4839C123.887 16.2765 124.169 16.1728 124.524 16.1728C124.731 16.1728 124.909 16.2321 125.057 16.3506C125.235 16.4691 125.323 16.6321 125.323 16.8395C125.323 16.8988 125.309 16.958 125.279 17.0173C125.249 17.0765 125.22 17.1358 125.19 17.1951C124.894 17.6691 124.628 18.158 124.391 18.6617C124.154 19.1654 123.947 19.6691 123.769 20.1728C123.325 21.5358 122.895 22.958 122.481 24.4395C122.096 25.8914 121.874 27.3284 121.815 28.7506L121.992 28.7951C122.673 27.7284 123.502 26.5728 124.479 25.3284C125.486 24.0543 126.582 22.7951 127.766 21.5506C128.951 20.2765 130.164 19.121 131.408 18.084C132.652 17.0173 133.851 16.158 135.006 15.5062C135.183 15.4173 135.346 15.3728 135.494 15.3728C135.701 15.3728 135.879 15.4469 136.027 15.5951C136.175 15.7136 136.249 15.8617 136.249 16.0395C136.249 16.2173 136.146 16.3802 135.938 16.5284C135.465 16.8247 134.991 17.1358 134.517 17.4617C134.073 17.7877 133.629 18.1136 133.185 18.4395C131.467 19.7432 129.898 21.1802 128.477 22.7506C127.056 24.2914 125.768 25.921 124.613 27.6395C124.346 28.0247 124.095 28.4247 123.858 28.8395C123.621 29.2543 123.384 29.6691 123.147 30.084C122.969 30.321 122.733 30.5432 122.436 30.7506C122.17 30.9877 121.859 31.1062 121.504 31.1062Z" fill="#F8F8F5"/>
<path d="M137.33 31.0617C135.79 31.0617 134.71 30.6173 134.088 29.7284C133.496 28.8099 133.2 27.7432 133.2 26.5284C133.2 25.6395 133.422 24.5877 133.866 23.3728C134.31 22.1284 134.917 20.9136 135.687 19.7284C136.486 18.5432 137.404 17.5654 138.44 16.7951C139.477 15.9951 140.587 15.5951 141.771 15.5951C142.541 15.5951 143.148 15.8173 143.592 16.2617C144.066 16.6765 144.303 17.2099 144.303 17.8617C144.303 19.1062 143.903 20.3062 143.104 21.4617C142.304 22.6173 141.268 23.5654 139.995 24.3062C138.722 25.0469 137.36 25.4173 135.909 25.4173C135.731 25.4173 135.553 25.4173 135.376 25.4173C135.198 25.3877 135.021 25.358 134.843 25.3284C134.754 25.7136 134.71 26.158 134.71 26.6617C134.71 27.4321 134.887 28.1432 135.243 28.7951C135.627 29.4469 136.353 29.7728 137.419 29.7728C138.307 29.7728 139.166 29.5506 139.995 29.1062C140.824 28.6617 141.52 28.158 142.082 27.5951C142.645 27.0321 143.119 26.5284 143.504 26.084C143.888 25.6395 144.288 25.1358 144.703 24.5728C145.117 23.9802 145.635 23.2099 146.257 22.2617C146.376 22.0543 146.553 21.9506 146.79 21.9506C147.205 21.9506 147.412 22.1728 147.412 22.6173C147.412 22.7654 147.382 22.884 147.323 22.9728C146.524 24.3358 145.635 25.6395 144.658 26.884C143.681 28.0988 142.586 29.1062 141.372 29.9062C140.187 30.6765 138.84 31.0617 137.33 31.0617ZM136.22 24.0395C137.345 24.0395 138.396 23.7432 139.373 23.1506C140.38 22.5284 141.194 21.758 141.816 20.8395C142.467 19.921 142.793 18.9877 142.793 18.0395C142.793 17.7136 142.704 17.4469 142.526 17.2395C142.378 17.0321 142.112 16.9284 141.727 16.9284C140.957 16.9284 140.217 17.1951 139.506 17.7284C138.796 18.2321 138.144 18.884 137.552 19.684C136.99 20.4543 136.501 21.2247 136.086 21.9951C135.702 22.7654 135.42 23.4173 135.243 23.9506C135.391 23.9802 135.539 24.0099 135.687 24.0395C135.864 24.0395 136.042 24.0395 136.22 24.0395Z" fill="#F8F8F5"/>
<path d="M148.769 31.4173C148.621 31.4173 148.458 31.3728 148.28 31.284C148.103 31.1951 148.014 31.0765 148.014 30.9284C148.014 30.8395 148.029 30.7358 148.058 30.6173C148.088 30.4988 148.118 30.3951 148.147 30.3062C148.473 29.5654 148.932 28.6173 149.524 27.4617C150.116 26.3062 150.738 25.0914 151.389 23.8173C152.041 22.5136 152.589 21.3136 153.033 20.2173C153.477 19.121 153.699 18.2765 153.699 17.6839C153.699 17.5062 153.655 17.3432 153.566 17.1951C153.507 17.0173 153.358 16.9284 153.122 16.9284C152.737 16.9284 152.278 17.121 151.745 17.5062C151.241 17.8617 150.723 18.3506 150.19 18.9728C149.894 19.3284 149.509 19.8469 149.036 20.5284C148.562 21.1802 148.073 21.8914 147.57 22.6617C147.067 23.4025 146.593 24.0988 146.149 24.7506C145.734 25.4025 145.408 25.8617 145.172 26.1284C144.964 26.4247 144.713 26.5728 144.416 26.5728C144.209 26.5728 144.061 26.4988 143.972 26.3506C143.854 26.2025 143.854 26.0247 143.972 25.8173C144.209 25.3728 144.565 24.7802 145.038 24.0395C145.542 23.2988 146.06 22.5284 146.593 21.7284C147.126 20.9284 147.614 20.2173 148.058 19.5951C148.503 18.9728 148.784 18.5728 148.902 18.3951C149.406 17.7432 150.013 17.121 150.723 16.5284C151.463 15.9358 152.307 15.6395 153.255 15.6395C154.617 15.6395 155.298 16.2469 155.298 17.4617C155.298 18.0247 155.165 18.6765 154.898 19.4173C154.632 20.158 154.247 21.0173 153.743 21.9951C154.691 21.0173 155.505 20.2173 156.186 19.5951C156.897 18.9728 157.593 18.3951 158.274 17.8617C158.955 17.2988 159.665 17.0173 160.405 17.0173C161.027 17.0173 161.545 17.2395 161.96 17.6839C162.404 18.1284 162.626 18.7802 162.626 19.6395C162.626 19.9062 162.597 20.2173 162.537 20.5728C162.508 20.8988 162.419 21.358 162.271 21.9506C163.278 20.8543 164.344 19.8914 165.469 19.0617C166.623 18.2321 167.689 17.5506 168.666 17.0173C169.673 16.4543 170.458 16.0988 171.02 15.9506C171.316 15.8617 171.598 15.7877 171.864 15.7284C172.16 15.6691 172.427 15.6395 172.664 15.6395C172.96 15.6395 173.197 15.7136 173.374 15.8617C173.552 16.0099 173.641 16.2914 173.641 16.7062C173.641 17.121 173.374 17.7136 172.841 18.484C172.308 19.2247 171.657 20.084 170.887 21.0617C170.147 22.0099 169.436 22.9728 168.755 23.9506C168.074 24.9284 167.586 25.8469 167.29 26.7062C167.142 27.2099 167.068 27.5802 167.068 27.8173C167.068 28.6173 167.438 29.0173 168.178 29.0173C168.681 29.0173 169.288 28.7802 169.999 28.3062C170.769 27.8025 171.598 26.9877 172.486 25.8617C173.374 24.7358 174.203 23.5802 174.973 22.3951C175.151 22.1284 175.388 21.9951 175.684 21.9951C175.891 21.9951 176.024 22.0543 176.084 22.1728C176.143 22.2617 176.172 22.3506 176.172 22.4395C176.172 22.5877 176.024 22.9432 175.728 23.5062C175.462 24.0691 175.003 24.7802 174.351 25.6395C173.522 26.7358 172.767 27.6099 172.086 28.2617C171.435 28.884 170.902 29.3136 170.487 29.5506C170.103 29.7877 169.703 29.9654 169.288 30.084C168.874 30.1728 168.459 30.2173 168.045 30.2173C167.097 30.2173 166.416 30.0247 166.002 29.6395C165.587 29.2247 165.38 28.7358 165.38 28.1728C165.38 27.4025 165.632 26.5284 166.135 25.5506C166.668 24.5728 167.29 23.5951 168 22.6173C168.711 21.6099 169.377 20.7062 169.999 19.9062C170.65 19.1062 171.094 18.5284 171.331 18.1728C171.45 18.0247 171.509 17.8765 171.509 17.7284C171.509 17.4914 171.346 17.3728 171.02 17.3728C170.843 17.3728 170.635 17.4173 170.399 17.5062C169.185 18.0099 167.985 18.7062 166.801 19.5951C165.617 20.4543 164.551 21.3284 163.603 22.2173C162.685 23.1062 161.975 23.8469 161.471 24.4395C161.353 24.8543 161.19 25.4173 160.983 26.1284C160.776 26.8099 160.494 27.4173 160.139 27.9506C159.784 28.484 159.325 28.7506 158.762 28.7506C158.496 28.7506 158.274 28.6617 158.096 28.484C157.948 28.2765 157.874 28.0691 157.874 27.8617C157.874 27.0914 158.111 26.3802 158.585 25.7284C159.058 25.0765 159.606 24.4691 160.228 23.9062C160.376 23.4025 160.583 22.7506 160.85 21.9506C161.116 21.121 161.249 20.4247 161.249 19.8617C161.249 19.3877 161.131 19.0173 160.894 18.7506C160.687 18.4839 160.42 18.3506 160.095 18.3506C159.71 18.3506 159.325 18.4988 158.94 18.7951C157.489 19.8025 156.201 21.0469 155.076 22.5284C153.951 23.9802 152.944 25.4025 152.056 26.7951C151.582 27.4765 151.138 28.1877 150.723 28.9284C150.338 29.6691 149.909 30.3802 149.435 31.0617C149.346 31.1802 149.258 31.2691 149.169 31.3284C149.08 31.3877 148.947 31.4173 148.769 31.4173Z" fill="#F8F8F5"/>
<path d="M181.788 12.484C181.64 12.484 181.477 12.4543 181.299 12.3951C181.122 12.3358 181.033 12.2025 181.033 11.9951C181.033 11.8469 181.077 11.7136 181.166 11.5951C181.403 11.1506 181.832 10.7654 182.454 10.4395C183.106 10.1136 183.594 9.95062 183.92 9.95062C184.068 9.95062 184.231 9.99506 184.408 10.0839C184.586 10.1432 184.675 10.2765 184.675 10.484C184.675 10.9877 184.364 11.4469 183.742 11.8617C183.15 12.2765 182.499 12.484 181.788 12.484ZM176.814 30.6617C175.807 30.6617 175.007 30.3802 174.415 29.8173C173.823 29.2543 173.527 28.4691 173.527 27.4617C173.527 26.8691 173.586 26.2914 173.705 25.7284C173.823 25.1358 173.986 24.558 174.193 23.9951C174.312 23.6691 174.549 23.1358 174.904 22.3951C175.289 21.6247 175.733 20.8247 176.236 19.9951C176.74 19.1358 177.228 18.4099 177.702 17.8173C178.176 17.2247 178.59 16.9284 178.946 16.9284C179.094 16.9284 179.286 16.9877 179.523 17.1062C179.789 17.1951 179.923 17.3432 179.923 17.5506C179.923 17.6691 179.863 17.8173 179.745 17.9951C179.064 18.7654 178.353 19.6839 177.613 20.7506C176.873 21.8173 176.251 22.9284 175.748 24.084C175.244 25.2395 174.993 26.3506 174.993 27.4173C174.993 28.7802 175.644 29.4617 176.947 29.4617C177.835 29.4617 178.723 29.0321 179.612 28.1728C180.53 27.3136 181.536 26.158 182.632 24.7062C182.958 24.2914 183.239 23.8914 183.476 23.5062C183.742 23.0914 183.979 22.7358 184.186 22.4395C184.394 22.2321 184.616 22.1284 184.853 22.1284C185.208 22.1284 185.386 22.2617 185.386 22.5284C185.386 22.8543 185.149 23.3728 184.675 24.084C184.201 24.7951 183.668 25.5358 183.076 26.3062C181.921 27.7284 180.915 28.8099 180.056 29.5506C179.197 30.2914 178.116 30.6617 176.814 30.6617Z" fill="#F8F8F5"/>
<path d="M186.629 30.7506C186.481 30.7506 186.319 30.7062 186.141 30.6173C185.963 30.5284 185.874 30.4099 185.874 30.2617C185.874 30.0247 185.919 29.8173 186.008 29.6395C186.333 28.9284 186.748 28.0543 187.251 27.0173C187.784 25.9802 188.302 24.9136 188.806 23.8173C189.339 22.6914 189.783 21.6395 190.138 20.6617C190.523 19.684 190.716 18.8988 190.716 18.3062C190.716 18.1284 190.671 17.9654 190.582 17.8173C190.523 17.6395 190.375 17.5506 190.138 17.5506C189.783 17.5506 189.428 17.6988 189.072 17.9951C188.747 18.2914 188.45 18.6321 188.184 19.0173C187.917 19.3728 187.695 19.6691 187.518 19.9062C186.926 20.7062 186.422 21.4469 186.008 22.1284C185.593 22.7802 185.164 23.4321 184.72 24.084C184.305 24.7062 183.787 25.4025 183.165 26.1728C183.076 26.2914 182.973 26.3951 182.854 26.484C182.765 26.5432 182.632 26.5728 182.455 26.5728C182.277 26.5728 182.129 26.484 182.01 26.3062C181.862 26.1284 181.833 25.9654 181.922 25.8173C182.573 24.7802 183.21 23.8025 183.831 22.884C184.453 21.9358 185.001 21.121 185.475 20.4395C185.948 19.758 186.274 19.2988 186.452 19.0617C186.955 18.4099 187.473 17.7877 188.006 17.1951C188.569 16.6025 189.324 16.3062 190.271 16.3062C191.071 16.3062 191.619 16.5284 191.915 16.9728C192.24 17.4173 192.403 17.9358 192.403 18.5284C192.403 19.5951 191.959 20.9728 191.071 22.6617C192.166 21.5062 193.336 20.4543 194.58 19.5062C195.853 18.558 197.037 17.7728 198.133 17.1506C199.228 16.4988 200.057 16.0988 200.62 15.9506C200.886 15.8617 201.153 15.7877 201.419 15.7284C201.715 15.6691 201.982 15.6395 202.219 15.6395C202.515 15.6395 202.752 15.7136 202.929 15.8617C203.137 16.0099 203.24 16.2914 203.24 16.7062C203.24 17.121 202.974 17.7136 202.441 18.484C201.908 19.2247 201.256 20.084 200.487 21.0617C199.746 22.0099 199.036 22.9728 198.355 23.9506C197.674 24.9284 197.185 25.8469 196.889 26.7062C196.8 26.9136 196.741 27.121 196.711 27.3284C196.682 27.5062 196.667 27.6691 196.667 27.8173C196.667 28.6173 197.037 29.0173 197.777 29.0173C198.251 29.0173 198.843 28.7802 199.554 28.3062C199.968 28.0395 200.368 27.7432 200.753 27.4173C201.168 27.0617 201.479 26.7506 201.686 26.484C202.13 25.9802 202.485 25.5506 202.752 25.1951C203.048 24.8395 203.329 24.4543 203.596 24.0395C203.892 23.5951 204.262 23.0469 204.706 22.3951C204.795 22.2469 204.884 22.1432 204.972 22.084C205.061 22.0247 205.209 21.9951 205.417 21.9951C205.742 21.9951 205.905 22.2025 205.905 22.6173C205.905 22.7951 205.772 23.1062 205.505 23.5506C205.239 23.9654 204.913 24.4395 204.528 24.9728C204.173 25.4765 203.818 25.9506 203.462 26.3951C203.137 26.8099 202.9 27.1062 202.752 27.284C202.426 27.6691 202.011 28.0691 201.508 28.484C201.034 28.8988 200.546 29.2543 200.042 29.5506C199.569 29.8173 199.08 30.0099 198.577 30.1284C198.073 30.2469 197.585 30.3062 197.111 30.3062C196.341 30.3062 195.779 30.084 195.423 29.6395C195.098 29.1951 194.935 28.721 194.935 28.2173C194.935 27.4469 195.187 26.5728 195.69 25.5951C196.223 24.5877 196.845 23.5951 197.555 22.6173C198.296 21.6099 198.977 20.7062 199.598 19.9062C200.25 19.1062 200.694 18.5284 200.931 18.1728C200.99 18.0839 201.034 18.0099 201.064 17.9506C201.094 17.8617 201.108 17.7877 201.108 17.7284C201.108 17.4914 200.931 17.3728 200.575 17.3728C200.398 17.3728 200.19 17.4173 199.954 17.5062C198.74 18.0099 197.466 18.7506 196.134 19.7284C194.831 20.7062 193.617 21.7728 192.492 22.9284C191.397 24.0543 190.523 25.121 189.872 26.1284L188.095 28.9284C187.947 29.1654 187.814 29.4173 187.695 29.684C187.577 29.921 187.444 30.158 187.296 30.3951C187.118 30.6321 186.896 30.7506 186.629 30.7506Z" fill="#F8F8F5"/>
<path d="M205.458 31.284C204.481 31.284 203.8 30.958 203.415 30.3062C203.03 29.6543 202.838 28.958 202.838 28.2173C202.838 27.358 203.015 26.3802 203.371 25.284C203.756 24.1877 204.274 23.0765 204.925 21.9506C205.577 20.8247 206.332 19.7877 207.19 18.8395C208.049 17.8914 208.982 17.121 209.988 16.5284C211.025 15.9358 212.076 15.6395 213.142 15.6395C213.793 15.6395 214.311 15.758 214.696 15.9951C215.111 16.2321 215.496 16.558 215.851 16.9728C216.473 15.9654 217.169 14.7506 217.938 13.3284C218.708 11.8765 219.493 10.4247 220.292 8.97284C221.092 7.49136 221.817 6.21728 222.469 5.15062C222.765 4.64691 223.076 4.30617 223.401 4.12839C223.727 3.95062 224.038 3.86173 224.334 3.86173C224.571 3.86173 224.763 3.92099 224.911 4.0395C225.06 4.15802 225.134 4.40987 225.134 4.79506C225.134 5.00247 224.941 5.44691 224.556 6.1284C224.201 6.78025 223.727 7.56543 223.135 8.48395C222.543 9.40247 221.906 10.3654 221.225 11.3728C220.544 12.3802 219.893 13.3432 219.271 14.2617C218.679 15.1802 218.19 15.9506 217.805 16.5728C217.509 17.0469 217.109 17.7728 216.606 18.7506C216.103 19.6988 215.585 20.7506 215.052 21.9062C214.519 23.0617 214.074 24.1877 213.719 25.284C213.364 26.3802 213.186 27.284 213.186 27.9951C213.186 28.3802 213.26 28.7062 213.408 28.9728C213.556 29.2395 213.778 29.3728 214.074 29.3728C214.4 29.3728 214.741 29.2395 215.096 28.9728C215.451 28.7062 215.777 28.4099 216.073 28.084C216.369 27.758 216.576 27.5062 216.695 27.3284C216.813 27.1802 217.095 26.7951 217.539 26.1728C217.983 25.5506 218.457 24.884 218.96 24.1728C219.493 23.4321 219.893 22.8543 220.159 22.4395C220.307 22.2025 220.514 22.084 220.781 22.084C221.166 22.084 221.358 22.3062 221.358 22.7506C221.358 22.8099 221.299 22.9432 221.181 23.1506C221.062 23.3284 220.914 23.5654 220.737 23.8617C219.315 26.0543 218.101 27.7284 217.095 28.884C216.088 30.0395 215.022 30.6173 213.897 30.6173C213.808 30.6173 213.704 30.6173 213.586 30.6173C213.497 30.6173 213.408 30.6025 213.319 30.5728C212.727 30.4543 212.313 30.1284 212.076 29.5951C211.869 29.0617 211.765 28.5136 211.765 27.9506C211.765 27.6839 211.78 27.4025 211.809 27.1062C211.869 26.7802 211.957 26.3506 212.076 25.8173C211.513 26.4988 210.891 27.2395 210.21 28.0395C209.529 28.8099 208.848 29.4914 208.167 30.084C207.516 30.6765 206.939 31.0321 206.435 31.1506C206.139 31.2395 205.813 31.284 205.458 31.284ZM205.636 29.9062C206.08 29.9062 206.598 29.684 207.19 29.2395C207.812 28.7654 208.434 28.1728 209.056 27.4617C209.707 26.7506 210.314 25.9951 210.877 25.1951C211.469 24.3951 211.972 23.6691 212.387 23.0173C212.831 22.3358 213.142 21.8173 213.319 21.4617L215.007 18.1284C214.77 17.8025 214.504 17.521 214.208 17.284C213.941 17.0469 213.571 16.9284 213.097 16.9284C212.179 16.9284 211.291 17.2099 210.433 17.7728C209.574 18.3062 208.774 19.0173 208.034 19.9062C207.324 20.7654 206.702 21.7136 206.169 22.7506C205.636 23.758 205.221 24.7506 204.925 25.7284C204.629 26.6765 204.481 27.5062 204.481 28.2173C204.481 28.5432 204.54 28.9136 204.659 29.3284C204.807 29.7136 205.132 29.9062 205.636 29.9062Z" fill="#F8F8F5"/>
<path d="M221.164 31.0617C219.714 31.0617 218.603 30.7654 217.833 30.1728C217.063 29.5802 216.679 28.958 216.679 28.3062C216.679 27.8321 216.886 27.4173 217.3 27.0617C217.685 26.6765 218.351 26.484 219.299 26.484C219.891 26.484 220.602 26.5728 221.431 26.7506C222.053 26.8988 222.704 27.0914 223.385 27.3284C224.096 27.5654 224.821 27.6691 225.561 27.6395C225.769 27.3136 225.887 27.0469 225.917 26.8395C225.946 26.6321 225.961 26.3802 225.961 26.084C225.961 25.1062 225.798 24.2914 225.473 23.6395C225.176 22.9877 224.821 22.3506 224.407 21.7284C224.022 21.1062 223.696 20.3506 223.43 19.4617C223.045 20.1136 222.556 20.9728 221.964 22.0395C221.372 23.0765 220.395 24.4988 219.033 26.3062C218.944 26.4543 218.766 26.5284 218.5 26.5284C218.055 26.5284 217.833 26.3358 217.833 25.9506C217.833 25.8617 217.907 25.7284 218.055 25.5506C218.174 25.3728 218.47 24.9136 218.944 24.1728C219.477 23.3136 220.098 22.3506 220.809 21.284C221.52 20.1877 222.201 18.9877 222.852 17.6839C222.882 17.1802 222.985 16.6914 223.163 16.2173C223.341 15.7432 223.548 15.3136 223.785 14.9284C224.111 14.3951 224.451 14.0099 224.806 13.7728C225.162 13.5062 225.487 13.3728 225.783 13.3728C226.346 13.3728 226.627 13.6988 226.627 14.3506C226.627 14.7951 226.45 15.3728 226.094 16.084C225.887 16.5284 225.621 16.9136 225.295 17.2395C224.969 17.5358 224.688 17.8025 224.451 18.0395C224.51 18.7802 224.688 19.4469 224.984 20.0395C225.28 20.6321 225.606 21.2099 225.961 21.7728C226.346 22.3358 226.672 22.9432 226.938 23.5951C227.205 24.2469 227.338 25.0321 227.338 25.9506C227.338 26.5432 227.234 27.0914 227.027 27.5951C227.678 27.6247 228.345 27.3877 229.026 26.884C229.736 26.3506 230.402 25.6691 231.024 24.8395C231.676 24.0099 232.253 23.1654 232.756 22.3062C232.904 22.0988 233.097 21.9951 233.334 21.9951C233.482 21.9951 233.63 22.0395 233.778 22.1284C233.926 22.2173 234 22.3654 234 22.5728C234 22.6914 233.956 22.8395 233.867 23.0173C233.008 24.558 232.179 25.758 231.38 26.6173C230.61 27.4469 229.825 28.0247 229.026 28.3506C228.226 28.6765 227.338 28.8691 226.361 28.9284C225.621 29.6099 224.821 30.1432 223.962 30.5284C223.133 30.884 222.201 31.0617 221.164 31.0617ZM220.942 29.9951C221.623 29.9951 222.216 29.8914 222.719 29.684C223.222 29.4765 223.77 29.1802 224.362 28.7951C223.74 28.7062 223.222 28.6025 222.808 28.484C222.393 28.3358 221.86 28.1877 221.209 28.0395C220.38 27.8617 219.728 27.7728 219.255 27.7728C218.396 27.7728 217.967 27.9802 217.967 28.3951C217.967 28.721 218.248 29.0765 218.81 29.4617C219.373 29.8173 220.084 29.9951 220.942 29.9951Z" fill="#F8F8F5"/>
</svg>
